# xmcd CD database file
#
# Track frame offsets:
#	151
#	20875
#	40489
#	65801
#	90353
#	108916
#	140664
#	167700
#	183552
#	210031
#	224691
#
# Disc length: 3312 seconds
#
# Revision: 0
# Processed by: cddbd v1.4PL0 Copyright (c) Steve Scherf et al.
# Submitted via: CDex 1.50Beta7
#
DISCID=a30cee0b
DTITLE=Pamela York - Blue York
DYEAR=2000
DGENRE=Jazz
TTITLE0=What Wondrous Love Is This
TTITLE1=Fascinating Rhythm
TTITLE2=Back To The Border
TTITLE3=Sail Away
TTITLE4=The Promise
TTITLE5=Like Someone In Love
TTITLE6=Blue York
TTITLE7=Just One Of Those Things
TTITLE8=Old Folks
TTITLE9=Everything Happens To Me
TTITLE10=Intimacy Of The Blues
EXTD=YEAR: 2000
EXTT0=
EXTT1=
EXTT2=
EXTT3=
EXTT4=
EXTT5=
EXTT6=
EXTT7=
EXTT8=
EXTT9=
EXTT10=
PLAYORDER=
